<svg width="1199" height="621" viewBox="0 0 1199 621" fill="none" xmlns="http://www.w3.org/2000/svg">
<path d="M0.8 222V2.99999H75.5C90.9 2.99999 104.3 5.89999 115.7 11.7C127.3 17.5 136.2 25.6 142.4 36C148.8 46.4 152 58.6 152 72.6C152 86.4 148.8 98.6 142.4 109.2C136 119.6 127.1 127.7 115.7 133.5C104.3 139.3 90.9 142.2 75.5 142.2H45.8V222H0.8ZM45.8 101.7H75.5C85.1 101.7 92.7 99.1 98.3 93.9C104.1 88.5 107 81.4 107 72.6C107 63.8 104.1 56.8 98.3 51.6C92.7 46.2 85.1 43.5 75.5 43.5H45.8V101.7ZM198.383 222L252.083 2.99999H309.083L363.383 222H317.483L306.983 172.5H254.783L244.283 222H198.383ZM262.283 136.5H299.183L288.683 83.7C287.283 76.1 285.783 68.6 284.183 61.2C282.783 53.6 281.683 47.7 280.883 43.5C280.083 47.7 278.983 53.5 277.583 60.9C276.383 68.3 274.983 75.8 273.383 83.4L262.283 136.5ZM491.966 225C477.366 225 464.566 222.3 453.566 216.9C442.566 211.3 433.966 203.6 427.766 193.8C421.766 183.8 418.766 172.2 418.766 159V66C418.766 52.6 421.766 41 427.766 31.2C433.966 21.4 442.566 13.8 453.566 8.4C464.566 2.8 477.366 -2.86102e-06 491.966 -2.86102e-06C506.766 -2.86102e-06 519.566 2.8 530.366 8.4C541.366 13.8 549.866 21.4 555.866 31.2C562.066 41 565.166 52.6 565.166 66H520.166C520.166 57.2 517.666 50.5 512.666 45.9C507.866 41.3 500.966 39 491.966 39C482.966 39 475.966 41.3 470.966 45.9C466.166 50.5 463.766 57.2 463.766 66V159C463.766 167.6 466.166 174.3 470.966 179.1C475.966 183.7 482.966 186 491.966 186C500.966 186 507.866 183.7 512.666 179.1C517.666 174.3 520.166 167.6 520.166 159V140.1H487.766V102H565.166V159C565.166 172.2 562.066 183.8 555.866 193.8C549.866 203.6 541.366 211.3 530.366 216.9C519.566 222.3 506.766 225 491.966 225ZM634.648 222V2.99999H769.648V41.4H678.748V90.6H759.148V129H678.748V183.6H769.648V222H634.648ZM1054.41 222V183H1109.61V44.1L1053.81 85.5V39L1105.11 2.99999H1154.61V183H1198.41V222H1054.41ZM72.5 621C58.7 621 46.7 618.6 36.5 613.8C26.5 609 18.7 602.2 13.1 593.4C7.7 584.4 5 573.9 5 561.9H24.8C24.8 574.5 29.1 584.6 37.7 592.2C46.3 599.6 57.9 603.3 72.5 603.3C86.5 603.3 97.4 599.8 105.2 592.8C113.2 585.8 117.2 576.1 117.2 563.7C117.2 553.1 114.3 543.9 108.5 536.1C102.7 528.3 94.6 522.9 84.2 519.9L57.2 511.5C42.6 507.1 31.2 499.7 23 489.3C15 478.7 11 466.2 11 451.8C11 440.4 13.5 430.6 18.5 422.4C23.5 414 30.6 407.5 39.8 402.9C49.2 398.3 60.2 396 72.8 396C91.6 396 106.5 401.2 117.5 411.6C128.5 422 134.1 436.1 134.3 453.9H114.5C114.5 441.5 110.7 431.7 103.1 424.5C95.5 417.3 85.3 413.7 72.5 413.7C59.5 413.7 49.3 416.9 41.9 423.3C34.5 429.7 30.8 438.7 30.8 450.3C30.8 460.3 33.6 469.1 39.2 476.7C44.8 484.1 52.6 489.4 62.6 492.6L89.6 501C104.4 505.6 116 513.4 124.4 524.4C132.8 535.4 137 548.2 137 562.8C137 574.6 134.3 584.9 128.9 593.7C123.7 602.3 116.2 609 106.4 613.8C96.8 618.6 85.5 621 72.5 621ZM238.283 618V417H175.283V399H320.483V417H258.083V618H238.283ZM425.066 621C406.266 621 391.566 615.5 380.966 604.5C370.366 593.3 365.066 578.4 365.066 559.8V399H384.866V559.8C384.866 573.4 388.266 584.1 395.066 591.9C402.066 599.5 412.066 603.3 425.066 603.3C437.866 603.3 447.666 599.5 454.466 591.9C461.266 584.1 464.666 573.4 464.666 559.8V399H484.466V559.8C484.466 578.6 479.166 593.5 468.566 604.5C458.166 615.5 443.666 621 425.066 621ZM542.548 618V399H593.848C607.848 399 619.848 401.8 629.848 407.4C640.048 412.8 647.948 420.4 653.548 430.2C659.348 440 662.248 451.6 662.248 465V552C662.248 565.2 659.348 576.8 653.548 586.8C647.948 596.6 640.048 604.3 629.848 609.9C619.848 615.3 607.848 618 593.848 618H542.548ZM562.348 600H593.848C608.648 600 620.448 595.7 629.248 587.1C638.048 578.5 642.448 566.8 642.448 552V465C642.448 450.4 638.048 438.8 629.248 430.2C620.448 421.4 608.648 417 593.848 417H562.348V600ZM722.731 618V600H768.631V417H722.731V398.7H834.331V417H788.731V600H834.331V618H722.731ZM955.414 621C943.014 621 932.214 618.6 923.014 613.8C914.014 608.8 907.014 601.7 902.014 592.5C897.214 583.3 894.814 572.4 894.814 559.8V457.2C894.814 444.6 897.214 433.8 902.014 424.8C907.014 415.6 914.014 408.5 923.014 403.5C932.214 398.5 943.014 396 955.414 396C967.814 396 978.514 398.5 987.514 403.5C996.714 408.5 1003.71 415.6 1008.51 424.8C1013.51 433.8 1016.01 444.6 1016.01 457.2V559.8C1016.01 572.4 1013.51 583.3 1008.51 592.5C1003.71 601.7 996.714 608.8 987.514 613.8C978.514 618.6 967.814 621 955.414 621ZM955.414 603.3C968.414 603.3 978.414 599.5 985.414 591.9C992.614 584.3 996.214 573.6 996.214 559.8V457.2C996.214 443.4 992.614 432.7 985.414 425.1C978.214 417.5 968.214 413.7 955.414 413.7C942.614 413.7 932.614 417.5 925.414 425.1C918.214 432.7 914.614 443.4 914.614 457.2V559.8C914.614 573.6 918.114 584.3 925.114 591.9C932.314 599.5 942.414 603.3 955.414 603.3ZM1133.8 621C1120 621 1108 618.6 1097.8 613.8C1087.8 609 1080 602.2 1074.4 593.4C1069 584.4 1066.3 573.9 1066.3 561.9H1086.1C1086.1 574.5 1090.4 584.6 1099 592.2C1107.6 599.6 1119.2 603.3 1133.8 603.3C1147.8 603.3 1158.7 599.8 1166.5 592.8C1174.5 585.8 1178.5 576.1 1178.5 563.7C1178.5 553.1 1175.6 543.9 1169.8 536.1C1164 528.3 1155.9 522.9 1145.5 519.9L1118.5 511.5C1103.9 507.1 1092.5 499.7 1084.3 489.3C1076.3 478.7 1072.3 466.2 1072.3 451.8C1072.3 440.4 1074.8 430.6 1079.8 422.4C1084.8 414 1091.9 407.5 1101.1 402.9C1110.5 398.3 1121.5 396 1134.1 396C1152.9 396 1167.8 401.2 1178.8 411.6C1189.8 422 1195.4 436.1 1195.6 453.9H1175.8C1175.8 441.5 1172 431.7 1164.4 424.5C1156.8 417.3 1146.6 413.7 1133.8 413.7C1120.8 413.7 1110.6 416.9 1103.2 423.3C1095.8 429.7 1092.1 438.7 1092.1 450.3C1092.1 460.3 1094.9 469.1 1100.5 476.7C1106.1 484.1 1113.9 489.4 1123.9 492.6L1150.9 501C1165.7 505.6 1177.3 513.4 1185.7 524.4C1194.1 535.4 1198.3 548.2 1198.3 562.8C1198.3 574.6 1195.6 584.9 1190.2 593.7C1185 602.3 1177.5 609 1167.7 613.8C1158.1 618.6 1146.8 621 1133.8 621Z" fill="white"/>
</svg>
